<svg xmlns="http://www.w3.org/2000/svg" version="1.1" xmlns:xlink="http://www.w3.org/1999/xlink" xmlns:svgjs="http://svgjs.com/svgjs" width="1440" height="560" preserveAspectRatio="none" viewBox="0 0 1440 560"><g mask="url(&quot;#SvgjsMask1000&quot;)" fill="none"><rect width="1440" height="560" x="0" y="0" fill="#0e2a47"></rect><path d="M0,327.297C63.083,328.24,119.742,300.365,178.84,278.28C254.27,250.092,352.303,248.8,394.153,180.004C435.74,111.64,410.656,19.664,381.489,-54.85C355.643,-120.88,293.006,-160.488,241.711,-209.444C195.612,-253.441,151.429,-295.647,96.086,-327.239C26.209,-367.128,-44.946,-438.617,-122.555,-417.384C-199.926,-396.216,-226.931,-299.882,-263.968,-228.729C-293.903,-171.221,-312.677,-110.196,-316.156,-45.456C-319.404,14.973,-307.673,73.986,-283.212,129.338C-258.516,185.222,-225.513,237.979,-175.435,272.982C-124.223,308.778,-62.475,326.363,0,327.297" fill="#0b2239"></path><path d="M1440 996.4549999999999C1530.354 985.5029999999999 1630.609 1024.93 1706.645 974.908 1782.563 924.963 1786.4850000000001 817.722 1831.595 738.835 1882.6100000000001 649.623 1987.509 583.815 1989.046 481.05899999999997 1990.605 376.89 1907.123 293.083 1839.449 213.875 1771.371 134.19400000000002 1698.0529999999999 53.139999999999986 1597.68 22.993000000000052 1497.04-7.234000000000037 1388.718 13.072999999999979 1289.904 48.81900000000002 1195.155 83.09500000000003 1107.157 138.954 1049.231 221.39600000000002 994.1890000000001 299.733 989.739 398.547 977.461 493.497 965.357 587.1 953.274 679.871 978.174 770.909 1006.225 873.469 1032.762 998.348 1128.304 1045.009 1224.743 1092.108 1333.454 1009.37 1440 996.4549999999999" fill="#113255"></path></g><defs><mask id="SvgjsMask1000"><rect width="1440" height="560" fill="#ffffff"></rect></mask></defs></svg>